<svg xmlns="http://www.w3.org/2000/svg" viewBox="0 0 636.54 636.54"><defs><style>.cls-1{fill:#004097;}.cls-1,.cls-2,.cls-3{fill-rule:evenodd;}.cls-2{fill:#fff;}.cls-3{fill:#ef8200;}</style></defs><g id="图层_2" data-name="图层 2"><g id="图层_1-2" data-name="图层 1"><path class="cls-1" d="M318.27,0c175.3,0,318.27,143,318.27,318.27s-143,318.27-318.27,318.27S0,493.57,0,318.27,143,0,318.27,0ZM457.46,179.08c-76.67-76.67-201.72-76.67-278.38,0s-76.67,201.72,0,278.38,201.71,76.67,278.38,0S534.13,255.74,457.46,179.08Z"/><path class="cls-2" d="M273.2,554.44l-19.89,2.49,4.35,5.6-22.38,32.94h11.19l26.73-41Zm19.27,24.87s-9.32-2.49-10.57-7.46c-1.86-5,0-14.92,8.71-16.78s18,3.1,18.65,13c.62,10.57-11.19,21.76-22.38,24.87-10.57,3.72-14.92,2.48-18-1.25-1.24-1.86-.62-4.35.62-6.21a2.93,2.93,0,0,1,3.73-.63c3.11,0,.62,1.87,1.25,4.36.62,3.1,8.7.62,12.43-2.49a22.4,22.4,0,0,0,5.59-7.46Zm-3.11-8.08s4.36-3.11,6.22-3.11a2.93,2.93,0,0,1,3.11,3.11c0,1.24,1.24,1.24,1.86.62,1.87-1.24,3.11-6.84-.62-9.32-4.35-3.73-11.81-2.49-13.05,3.73-.62,4.35,3.11,5,2.48,5Zm45.38-14.92-13.05,18s10.57-1.87,13.67,1.24,3.11,6.22,1.87,9.95a7.52,7.52,0,0,1-8.08,4.35c-3.11-.62-6.22-2.49-5.6-5.6.62-2.48,1.87,1.87,1.87,1.87a2.71,2.71,0,0,0,2.48-1.87c.63-2.48,1.87-5.59-.62-6.84-2.48-.62-7.46-1.86-9.32,1.87-2.49,3.73-3.11,12.43,2.49,15.54,5.59,3.73,16.78,2.49,21.13-1.86a17.47,17.47,0,0,0,5.6-13.06c0-4.35-1.87-8.7-5.6-9.94a32.62,32.62,0,0,0-8.7-1.25l5-6.21,10.57.62,2.48,6.21s2.49-5.59,5-8.08a76.09,76.09,0,0,1,7.46-3.73l-28.6-1.24Zm46,1.86c5.6-5,19.89-4.35,20.52,3.73,0,3.73,0,6.84-5.6,7.46s-4.35-4.35-4.35-4.35h2.49a4.79,4.79,0,0,0,.62-3.73c-.62-1.24-3.11-1.24-8.7,0-5.6,1.87-10.57,9.33-10.57,9.33s3.11-1.25,8.7.62c9.32,4.35,8.08,21.13-6.22,23.62C362.09,598,359,587.39,362.09,576.2c3.73-11.19,18.65-18,18.65-18Zm-10.56,20.52s-1.87,1.24-1.25,4.35c0,3.73,1.25,5,4.35,6.22,5.6,1.86,13.68-5,9.33-11.19-1.87-2.49-3.73-.63-3.73,1.24a7.88,7.88,0,0,1-1.25,3.73s-3.73-.62-4.35-3.11C373.28,577.44,370.18,578.69,370.18,578.69Z"/><path class="cls-2" d="M33.88,323.86s4.35,5,6.84,4.36,4.35-2.49,7.46-1.25c2.48,1.87,6.21,3.73,5.59,5.6-.62,2.48-.62,3.73-3.11,3.73-1.86.62-5.59,0-7.46,0s-1.86,1.24-1.86,1.24,12.43,6.22,17.4,6.84,4.35-1.87,6.84-4.35c3.11-2.49,1.87-5.6,6.22-5s13.67.63,16.16-2.48c3.11-3.11,6.84-13.68,6.22-19.27-.63-6.22-1.87-8.71-5.6-8.08s-4.35,9.94-4.35,13.67-1.86,8.7-5,8.7c-1.25,0-2.49,0-3.11-.62-1.87-1.24-1.24-3.73-1.87-6.84,0-3.72.63-7.45-1.86-8.08-1.87-.62-8.08-2.48-11.81-5.59-3.11-3.11-4.35-3.73-5.6-8.08-1.86-3.73-2.48-6.22-4.35-6.22a22.18,22.18,0,0,0-11.19,5,31.89,31.89,0,0,1-8.7,4.36,55.89,55.89,0,0,0-7.46-1.87c-3.73,0-6.21-1.24-10.57,1.24a18.66,18.66,0,0,0-5,4.36s5.6-.63,7.46,0,6.84,4.35,9.32,6.83,5.6,5.6,6.84,8.08a24.81,24.81,0,0,0,2.49,3.73Zm1.24-18s-.62-2.49,1.25-3.11c2.48-1.24,1.86-1.87,4.35-2.49,3.1-.62,3.73-.62,6.83,1.87,3.11,1.86,6.84,5.59,6.22,8.7-1.24,3.11-1.86,2.49-5.59,1.87-3.11-1.25-9.33-3.11-10.57-4.36l-2.49-2.48Zm23,13.67c.62,0,0-.62-.62-.62,0-.62-.62-.62-.62-1.24s-.62-.62.62-1.24c.62-.63,0,0,1.24-.63s.63,0,1.25.63c0,.62-1.87,3.1-1.87,3.1Zm5.6,0v-1.24H65c.62,0,.62,0,1.24.62a2.16,2.16,0,0,1-.62,1.24C63.72,320.76,64.34,318.89,63.72,319.51Z"/><path class="cls-2" d="M71.8,157.89s1.86,5,1.86,6.22a4.8,4.8,0,0,1,.62,1.86,34,34,0,0,0,5-2.48c1.86-1.87,1.86-1.87,2.48-1.25a77.67,77.67,0,0,1,9.33,6.22c3.73,1.86,5,4.35,8.08,6.21a16.56,16.56,0,0,0,6.22,2.49l-5,11.19s-.62,4.35.62,5c.63,1.25,3.73,1.25,6.22,0,1.87-.62,5.59-.62,6.84-.62,1.24.62,10.57,5,10.57,5a4,4,0,0,1,1.86-3.11c1.87-1.25,5.6-7.46,7.46-12.43a12.73,12.73,0,0,0-1.24-11.82,48.86,48.86,0,0,0-9.33-6.21c-2.48-.62-3.73-2.49-3.11-4.35a18.24,18.24,0,0,1,1.87-6.22c.62-1.24-1.24-3.11-1.24-3.11a7.58,7.58,0,0,1-3.11,1.25,43.13,43.13,0,0,0-5.6,4.35c-1.24,1.24-2.48,4.35-3.73,6.21s-2.48,5-3.73,5c-1.24.62-4.35-.63-6.21-2.49s-6.22-7.46-8.08-9.32a31.54,31.54,0,0,0-7.46-5c-3.11-.62-5.6,1.25-7.46,2.49-1.87.62-3.73,5-3.73,5Zm37.92,27.35s.62-3.73,1.24-6.21c1.24-1.87,1.86-3.73,3.11-4.36.62-.62,1.24-2.48,1.86-1.86,1.25.62,2.49.62,3.73,1.24,1.25,1.25,2.49,1.87,3.11,3.11,1.24.62,2.49,2.49,3.11,5,0,2.48-1.87,3.72-3.73,5a32.15,32.15,0,0,1-6.84,1.24,5.27,5.27,0,0,1-3.73-1.24C110.34,187.11,109.72,185.24,109.72,185.24Z"/><path class="cls-2" d="M198,46a26.62,26.62,0,0,0,0,10,47.17,47.17,0,0,1,2.48,6.83,4.25,4.25,0,0,1,0,3.11,38.31,38.31,0,0,0-3.73,4.35c-1.86,1.25-5,5.6-6.21,8.71-.62,3.73,0,6.83,1.86,6.21,2.49-.62,3.11-1.86,3.73-3.73,1.25-1.86,3.73-3.11,4.35-1.86s-.62,7.46-.62,9.32-.62,6.84,0,8.7c.62,1.25,2.49,3.73,2.49,4.36.62.62,1.24,1.86,1.86,1.24a6.34,6.34,0,0,0,1.87-.62,41.88,41.88,0,0,0,1.86-4.35c.62-1.87,1.87-3.11,1.87-4.36.62-1.24,1.86-1.86,2.48-2.48,1.25,0,2.49,1.86,3.11,3.11,0,.62,1.87,4.35,1.87,5s-.62.62-1.25,1.24a2.3,2.3,0,0,0-.62,1.87h-1.24a10.87,10.87,0,0,1,2.49,1.86c1.24.62,3.1,1.87,4.35.62,1.86-.62,1.24-1.24,1.24-1.86.62-.62,1.24-1.87.62-2.49a42.48,42.48,0,0,0-3.73-8.08A22.08,22.08,0,0,0,216.64,87a36.55,36.55,0,0,1-1.87-4.35s1.87-6.22,2.49-9.33a25.83,25.83,0,0,0,.62-6.22c0-1.24.62-3.1,0-4.35a6.18,6.18,0,0,1-.62-2.48A2.68,2.68,0,0,0,216,62.78c-.62,1.87-1.24,5.6-1.86,7.46,0,1.25-.62,3.73-1.24,4.35a5,5,0,0,1-5,0,3,3,0,0,1,0-2.48c0-1.25,0-1.87-.62-2.49,0-1.24-1.24-3.73-2.49-4.35-.62,0-1.24-1.86-1.24-2.49s-2.48-5.59-1.86-6.83a29.66,29.66,0,0,1,3.1-8.71,7.33,7.33,0,0,0,.63-6.21c-.63-5.6-3.73-4.35-5.6-1.25A14,14,0,0,0,198,46ZM224.1,28.59a1.92,1.92,0,0,1,2.48-1.24l5.6,1.87a6.41,6.41,0,0,1,.62,2.48c.62,1.25,3.11,6.22,4.35,8.08.62,1.87,2.49,3.11,3.73,5,1.86,1.86,5,3.73,6.22,5.59,1.86,2.49,1.86,2.49,2.48,4.35a5.27,5.27,0,0,1,0,4.35,26.59,26.59,0,0,0-1.24,6.84c0,1.87,1.86,4.35,1.86,5a63.68,63.68,0,0,0,2.49,6.22v1.24a9,9,0,0,0-1.24,4.36c-.63,1.86.62,5,1.24,6.83,0,1.87,2.49,9.33,2.49,9.95.62.62,1.24,3.11.62,3.11s-.62-.62-1.87-1.25c-1.86-1.24-3.73-4.35-5.59-7.46-1.87-2.48-4.35-8.08-5.6-10.56-.62-1.87-3.1-5-4.35-6.22-.62-1.86-6.21,1.87-7.46,1.87-1.24.62-3.1,2.48-5.59-.63-2.49-3.73,0-5,0-6.83,0-1.25,1.86-5.6,1.24-6.84-.62-1.87-3.11,0-4.35-1.87S221,57.19,221,56s-1.25-3.73-1.25-5c0-1.86.63-2.48,2.49-3.11,1.24-1.24,6.22-3.1,6.22-3.1l1.24-2.49L224.1,28.59Zm3.1,26.11a2.2,2.2,0,0,0,.63,2.49c1.24.62,1.86,1.24,2.48.62,3.73-1.24,1.87-5.59-.62-4.35a2.71,2.71,0,0,0-2.49,1.24Zm3.73,11.19s-.62,2.49.62,3.73c1.25,1.87,3.11,0,3.73-.62a2.73,2.73,0,0,0,.63-3.11c0-1.24,0-1.24-1.25-1.86C232.18,62.78,231.55,64,230.93,65.89Z"/><path class="cls-2" d="M400,47.24A9.34,9.34,0,0,0,395.66,51c-1.86,2.49-3.73,7.46-5,8.71-.62.62-1.86.62-3.11,0-1.86-.63-5-1.25-5,0s1.24,1.24,1.86,3.1,1.87,6.84-1.24,11.19c-3.73,4.35-4.35,6.22-6.84,7.46s-5,.62-6.21,1.25c-1.25,0-1.87-.63-2.49.62s-1.24,6.21,1.24,8.08c1.87,1.86,3.11.62,4.35.62a13.54,13.54,0,0,0,3.73-.62,8.8,8.8,0,0,0,2.49,2.48c1.24,1.25,1.87,1.25,3.11.63s2.49-4.36,3.11-6.22A25.3,25.3,0,0,0,387,83.92a29.11,29.11,0,0,1,3.73-3.11c1.24-1.24.62-.62,3.11-1.86a15.75,15.75,0,0,0,3.73-2.49l-1.25,5a2.59,2.59,0,0,0,0,3.73c1.87,1.25,3.73,3.73,5,5s1.86,2.49.62,3.73c-1.24.63-5,0-5.6-.62-.62-1.24-1.86-2.48-2.48-4.35a19.19,19.19,0,0,1-.62-5.59c.62-1.25,0-1.87,0-1.87s-2.49,1.25-2.49,1.87c-.62,1.24-2.49,3.73-3.11,6.21-1.24,2.49-2.48,5.6-1.86,6.84,1.24,1.24,6.21,3.73,8.7,4.35s6.84,1.87,8.7,1.25c2.49,0,3.73,0,4.35.62,1.25.62,1.87.62,1.87,1.24,0,1.24.62,2.49,1.24,5s2.49,3.11,4.35,4.35c1.25.63,8.71,2.49,11.19,3.11,3.11.62,5.6,1.25,6.84.62,1.87,0,4.35-.62,2.49-1.86-1.87-.62-3.73-2.49-5.6-3.73-2.48-1.87-6.21-7.46-8.08-10S418,95.73,418,95.73a9.16,9.16,0,0,1,1.24-1.87c1.25,0,3.11-4.35,3.73-7.45,1.25-2.49,1.87-5.6,2.49-6.84,0-1.25,0-2.49-.62-3.11,0-1.24-.62-.62-1.87-1.24-.62,0-3.1.62-4.35.62a1.33,1.33,0,0,1-1.24-1.25V72.73c.62-.62,2.49-1.24,5-1.87,3.11-.62,6.22,0,8.08-1.86s3.11-4.35,4.36-6.22a6.74,6.74,0,0,0,.62-3.1,2.17,2.17,0,0,0-.62-1.25,3.08,3.08,0,0,0-1.87.62c-.62,1.25-4.35,2.49-5,3.11-1.25,1.25-2.49,1.87-3.73,1.25s-1.87-.63-2.49-1.25A55.68,55.68,0,0,1,423.64,56c.62-1.87,1.24-3.11,1.24-5,0-2.48-.62-3.11-1.24-3.73s-1.87,0-1.87,0-1.24,1.87-1.86,3.11a61.25,61.25,0,0,0-2.49,6.22c-.62,1.24-1.87,5.59-2.49,6.84,0,.62-1.86.62-3.1.62-1.25.62-3.11,0-5.6,0-3.11.62-5.59,1.24-6.84,2.48-1.24,1.87-5,3.73-5,3.73s-1.86,0-1.86-1.24,1.86-3.11,3.72-4.35,4.36-3.11,5.6-5.6a22.49,22.49,0,0,0,2.49-5.59c0-1.24,0-1.87-1.87-4.35S400,47.24,400,47.24ZM403.12,69a2,2,0,0,1,1.25.62c.62,1.24.62,0,1.24,1.24,0,.63,1.24.63,1.24,1.25.62,0,.62.62.62,1.24a8.29,8.29,0,0,1-1.86,3.11c-.62.62-2.49,0-2.49-.62-.62-.62-2.48-.62-3.11-.62-.62-.63,0-1.87.63-2.49.62-1.24,0-1.24,1.24-1.87A8.92,8.92,0,0,0,403.12,69Zm8.71,15.54,2.48-1.24c1.87,0,2.49-.62,2.49.62-.62,1.24-.62,2.49-1.25,3.73-.62.62-1.86,2.48-3.1,2.48-1.25-.62-1.87-1.24-1.87-1.86-.62-.62,0-1.86.62-2.49A2.15,2.15,0,0,1,411.83,84.54Z"/><path class="cls-2" d="M523.72,156s6.21,7.46,6.84,8.7c1.24,1.24,5,1.86,7.45.62,2.49-1.86,11.82-9.32,13.68-10.57s3.11-3.1,6.84-3.1,6.21.62,6.21,3.1c0,1.87-.62,7.46-1.24,8.08-.62,1.25,0,1.87-.62,2.49,0,.62-5,3.73-7.46,5a38.54,38.54,0,0,0-7.46,5.6c-1.24,1.24,0,2.49,1.87,2.49,1.86.62,4.35,0,7.45,1.86a17.32,17.32,0,0,1,5.6,8.7c1.24,2.49.62,4.35-2.49,4.35s-5.59-1.86-7.46-3.73c-1.24-1.86-5-4.35-6.83-5.59-1.87-.62-5-1.86-6.22-1.86-.62,0-1.24,0-3.11,1.86-2.48,1.24-6.84,4.35-12.43,5-5,0-11.81-2.48-15.54-4.35-3.73-2.48-6.84-5.59-6.84-6.84s2.49-3.73,3.11-4.35c1.24-.62,3.11-.62,5.59-.62,3.11.62,4.35,1.24,5.6.62,1.24,0,1.86.62,1.86-.62a12.06,12.06,0,0,0-1.86-6.22,26.56,26.56,0,0,1-3.11-7.46c0-2.48,1.86-3.72,5-4.35,2.49-.62,5.6,1.25,5.6,1.25Zm2.48,35.43a8.83,8.83,0,0,0-2.48,1.24c-.62,0-.62,1.25-.62,3.11-.63,1.24.62,3.73.62,3.73a5.8,5.8,0,0,1,0,3.73v7.46c-.62,1.86,2.48,3.73,3.73,5,1.24,1.87,1.86,3.11,3.11,1.87,1.24-.62,4.35-5.6,5-8.08.62-3.11-1.24-7.46-2.49-10C531.8,196.43,526.2,191.46,526.2,191.46Z"/><path class="cls-2" d="M604.53,304.59s7.46-2.48,9.94-2.48c1.87-.62,5.6-3.11,5.6-5.6s-2.49-4.35-4.35-5c-2.49-.62-5.6.62-8.08,2.49s-1.87,3.73-3.73,5c-1.25,1.24-1.25,1.24-1.25,2.49s1.87,3.1,1.87,3.1Zm14.92,3.73s-3.73-.62-5-.62c-1.24-.62-4.35.62-4.35,2.49,0,1.24,0,3.73.62,4.35.63,1.24,1.87,1.24,2.49,1.87s1.87,0,1.87,0a4.69,4.69,0,0,0,1.86-1.87c1.24-1.86,1.24-3.11,1.87-4.35a4.81,4.81,0,0,0,.62-1.87Zm9.32,21.14a55.05,55.05,0,0,1-5.59-1.87c-1.87,0-6.22-3.1-8.71-3.73a16.8,16.8,0,0,0-5-1.86,8.91,8.91,0,0,0,1.24,4.35,4.75,4.75,0,0,0,1.87,1.87,64.75,64.75,0,0,0,1.86,7.46c0,.62,1.87,5,3.73,5.59a7.91,7.91,0,0,0,6.84-3.11c1.87-2.48,2.49-2.48,3.11-4.35a16.41,16.41,0,0,0,.62-4.35Zm-47.24-32.33a41.88,41.88,0,0,0-4.35-1.86c-1.87-.62-2.49-3.11-2.49-5-.62-1.25,1.87-3.73,5-3.73a36.85,36.85,0,0,1,8.71,1.24c2.48,0,4.35,2.49,5.59,5,1.24,3.11,4.35,11.19,5.6,14.3A36.87,36.87,0,0,1,602,319.51c.62,4.35,0,5.6-1.24,7.46-.62,1.87-2.49,3.73-3.73,5-1.24.62-5-.63-5.6-2.49-1.24-1.87-4.35-1.87-6.21-2.49-1.87,0-4.35,1.25-5.6,0-1.86-.62-3.1-1.86-5.59-2.48s-5.6,0-6.22.62,0,2.48,1.25,3.73a4.69,4.69,0,0,1,2.48,4.35c.62,1.86.62,1.86-.62,3.11a34.21,34.21,0,0,1-4.35,5.59c-1.24,1.87-1.87,1.24-2.49,0-1.24-.62-1.86-3.73-2.48-5.59,0-1.87,0-3.73-1.25-5.6-1.24-2.48-3.73-2.48-5.59-2.48a19.65,19.65,0,0,1-8.08-1.25c-2.49-1.24-1.87-3.11-3.11-7.46-.62-4.35-1.24-8.08-.62-9.32.62-1.87,4.35-3.11,6.84-4.35s3.1-3.73,4.35-4.35,3.73-5.6,6.21-6.22c1.87-.62,3.73,1.24,3.73,1.24s-1.24,4.35-.62,6.84c0,3.11,0,6.22,1.24,8.08a68.18,68.18,0,0,0,6.84,6.22,11.31,11.31,0,0,0,8.08,1.86,2,2,0,0,0,.62-3.73l-3.72-3.73-5-2.48c-1.24,0-1.24-1.87-.62-2.49.62-1.24,3.11-1.86,5.6-1.86a10.16,10.16,0,0,1,6.83,4.35c2.49,1.86,5.6,8.7,6.84,9.94a1.54,1.54,0,0,0,2.49-.62c0-1.86,0-3.11-1.87-6.21a22.27,22.27,0,0,1-3.11-5c-1.24-2.48-2.48-1.86-4.35-5a48.46,48.46,0,0,1-1.86-5.6ZM555.42,309a3.87,3.87,0,0,0-2.49,1.24c-1.24.62-1.24,2.49-1.24,3.73.62,1.86,0,2.49,1.24,4.35s1.87,1.24,2.49,1.24c1.24,0,2.49.62,3.11-1.24,1.24-1.86,1.24-3.73-.62-5A17,17,0,0,1,555.42,309Z"/><path class="cls-2" d="M457.46,179.08c76.67,76.66,76.67,201.72,0,278.38s-201.72,76.67-278.38,0-76.67-201.72,0-278.38S380.79,102.41,457.46,179.08Z"/><path class="cls-1" d="M275.05,262.73c67.1-67.1,146.78-96.88,177.37-66.29,16.65,16.65,15.41,47.84,0,83.64H437.59c19.35-35.41,24.54-65.49,10.61-79.42-24.12-24.12-96.63,9-161.4,73.82l-1.09,1.1a50.62,50.62,0,0,0-16.41-7q2.82-3,5.75-5.88ZM402.4,356.46q-7.72,8.78-16.28,17.35c-67.1,67.1-146.78,96.88-177.37,66.29-18.49-18.48-14.92-54.91,5.61-95.64A51.56,51.56,0,0,0,223.84,356C204.28,391.6,199,421.89,213,435.88c24.12,24.12,96.62-9,161.4-73.82q2.79-2.79,5.49-5.6Z"/><path class="cls-3" d="M258,273.71a44.54,44.54,0,0,1,23.16,82.6q2.77,2.88,5.64,5.75a425,425,0,0,0,41.33,36.4q-6.74,5.15-13.38,9.78a362.55,362.55,0,0,1-39.7-34.43q-5.66-5.64-10.94-11.4a45.42,45.42,0,0,1-6.11.42,44.54,44.54,0,0,1-40.09-64c-23.62-43.44-28.67-82.92-9.16-102.42,22-22,69.38-12.78,119.22,19.1q-6.72,4.34-13.46,9.21C269.85,194.81,229.73,183.9,213,200.66c-14.73,14.73-8.08,47.53,14.1,85.59A44.42,44.42,0,0,1,258,273.71Zm88.63,138.06c44.67,30,84.8,40.87,101.56,24.11,13.94-13.93,8.75-44-10.6-79.42h14.83c15.41,35.8,16.65,67,0,83.64-22,22-69.4,12.77-119.24-19.11q6.7-4.33,13.45-9.22Zm-.24-183.49a364,364,0,0,1,39.74,34.45q8.55,8.56,16.27,17.35H379.87q-2.72-2.81-5.5-5.6A423.14,423.14,0,0,0,333,238.06Q339.75,232.9,346.39,228.28Z"/><path class="cls-1" d="M186.87,289.62h17.37v33.57a28.53,28.53,0,0,1-1.56,9.43,20.46,20.46,0,0,1-4.88,7.75,19.52,19.52,0,0,1-7,4.67,35.44,35.44,0,0,1-12.18,1.87,75,75,0,0,1-9-.57,23.36,23.36,0,0,1-8.12-2.28,20.53,20.53,0,0,1-6-4.87,17.72,17.72,0,0,1-3.71-6.48,33.4,33.4,0,0,1-1.61-9.52V289.62h17.36V324a9.84,9.84,0,0,0,2.54,7.2,11,11,0,0,0,14.15,0c1.69-1.69,2.54-4.12,2.54-7.24Z"/><path class="cls-2" d="M272.75,328l9.6,1.18a23.41,23.41,0,0,1-8.4,13.07q-6.17,4.62-15.7,4.63-12,0-19.06-7.39t-7.05-20.77q0-13.85,7.12-21.48t18.48-7.64q11,0,17.95,7.48t7,21.06c0,.56,0,1.39-.05,2.48H241.75q.5,9,5.1,13.83a15.21,15.21,0,0,0,11.45,4.81,14.22,14.22,0,0,0,8.73-2.7q3.62-2.67,5.72-8.56Zm-30.49-15h30.6c-.41-4.59-1.59-8.07-3.51-10.35a14.25,14.25,0,0,0-11.5-5.38,14.8,14.8,0,0,0-10.77,4.28A17,17,0,0,0,242.26,313Z"/><path class="cls-1" d="M311.76,327.64l16.3-1a12.35,12.35,0,0,0,2.15,6.05,9,9,0,0,0,7.56,3.36,8.37,8.37,0,0,0,5.65-1.72,5.14,5.14,0,0,0,2-4,5.07,5.07,0,0,0-1.88-3.85q-1.89-1.71-8.77-3.21c-7.51-1.69-12.86-3.92-16.06-6.73a13.49,13.49,0,0,1-4.84-10.69,14.5,14.5,0,0,1,2.48-8.07,16.47,16.47,0,0,1,7.44-6q5-2.16,13.62-2.16,10.64,0,16.21,3.94t6.63,12.57l-16.14.94a7.53,7.53,0,0,0-8.39-7.13,6.82,6.82,0,0,0-4.5,1.26,3.89,3.89,0,0,0-1.51,3.08,3.12,3.12,0,0,0,1.24,2.38c.81.73,2.72,1.4,5.75,2q11.24,2.43,16.08,4.91a17,17,0,0,1,7.07,6.14A15.58,15.58,0,0,1,362,328a17.58,17.58,0,0,1-2.95,9.82,18.4,18.4,0,0,1-8.24,6.82,33.27,33.27,0,0,1-13.34,2.33q-14.13,0-19.57-5.45A21.38,21.38,0,0,1,311.76,327.64Z"/><polygon class="cls-1" points="368.9 289.63 422.71 289.63 422.71 303.78 404.65 303.78 404.65 346.91 386.95 346.91 386.95 303.78 368.9 303.78 368.9 289.63"/><path class="cls-1" d="M458.22,289.63a28.72,28.72,0,0,1,27.56,20.84H471.17a15.13,15.13,0,1,0,0,15.6h14.61a28.65,28.65,0,1,1-27.56-36.44Z"/></g></g></svg>